<svg width="400" height="496" viewBox="0 0 400 496" fill="none" xmlns="http://www.w3.org/2000/svg">
<path d="M241 97.5L200 2L159 97L176 119L187 151.5L191 173.5L144.5 119L1 47.5L58.5 185.5L68 256L43 314L153.5 401.5L150.5 319.5L129 286V337.5L93.5 304.5L99 273.5V237.5L91.5 193L126 220L136 237.5L147 220L179.5 201.5L81 160L74.5 132.5L144.5 154L179.5 176.5L191 193L187 210.5L165 237.5L178 261L181.5 319.5V401.5L169 425L200.5 494L231 425.5L218.5 402V320L222 261.5L235 238L213 211L209 193.5L220.5 177L255.5 154.5L325.5 133L319 160.5L220.5 202L253 220.5L264 238L274 220.5L308.5 193.5L301 238V274L306.5 305L271 338V286.5L249.5 320L246.5 402L357 314.5L332 256.5L341.5 186L399 48L255.5 119.5L209 174L213 152L224 119.5L241 97.5Z" fill="url(#paint0_linear_1_11)" stroke="black"/>
<defs>
<linearGradient id="paint0_linear_1_11" x1="200" y1="2" x2="200" y2="494" gradientUnits="userSpaceOnUse">
<stop stop-color="#FDF075"/>
<stop offset="0.43" stop-color="#FFAF43"/>
<stop offset="0.73" stop-color="#A05332"/>
<stop offset="1" stop-color="#471D24"/>
</linearGradient>
</defs>
</svg>
